<svg width="64" height="64" viewBox="0 0 64 64" fill="none" xmlns="http://www.w3.org/2000/svg">
<rect width="64" height="64" rx="9" fill="#193349"/>
<path fill-rule="evenodd" clip-rule="evenodd" d="M43.7953 25.8111C43.7137 25.9343 43.6702 26.0793 43.6702 26.2271C43.6702 26.079 43.7137 25.9343 43.7953 25.8111Z" fill="white"/>
<path fill-rule="evenodd" clip-rule="evenodd" d="M22.8191 30.875V39.875V49.25C22.8191 49.6642 22.4857 50 22.0745 50H15.754C15.3391 50 15.0042 49.6585 15.0094 49.2406L15.3631 20.7406C15.3682 20.3301 15.7001 20 16.1078 20H23.9286C24.1672 20 24.3914 20.1152 24.5315 20.3098L35.1064 35L36.9681 37.625L43.6702 47.5V49.25C43.6702 49.6642 43.3368 50 42.9255 50H37.3419C37.1067 50 36.8853 49.8881 36.7447 49.6981L22.8191 30.875Z" fill="white"/>
<path d="M43.6702 49.25V32.927V26.2271C43.6702 26.0793 43.7137 25.9343 43.7953 25.8111L45.1596 23.75V27.125C45.1596 27.5392 45.493 27.875 45.9043 27.875H49.2553C49.6666 27.875 50 27.5392 50 27.125V14.75C50 14.3358 49.6666 14 49.2553 14H39.2021C38.7909 14 38.4574 14.3358 38.4574 14.75V18.5C38.4574 18.9142 38.7909 19.25 39.2021 19.25H42.1808L37.125 25.7969C37.0233 25.9285 36.9681 26.0905 36.9681 26.2573V37.625L43.6702 47.5V49.25Z" fill="#38A46D"/>
</svg>
